<svg width="115" height="92" viewBox="0 0 115 92" fill="none" xmlns="http://www.w3.org/2000/svg">
<path d="M24.6753 69.9182C5.5295 70.2414 48.8041 40.8087 48.4808 21.6629C48.1576 2.51717 4.35903 0.908453 23.5048 0.585236C42.6506 0.262019 58.4333 15.5207 58.7565 34.6665C59.0797 53.8122 43.821 69.595 24.6753 69.9182Z" fill="#B9BE28"/>
<path d="M41.2778 22.0443C60.3348 23.9144 13.9761 48.2011 12.106 67.2581C10.2359 86.315 53.5626 92.9258 34.5057 91.0557C15.4487 89.1856 1.516 72.2209 3.38607 53.1639C5.25615 34.107 22.2209 20.1743 41.2778 22.0443Z" fill="#7E8129"/>
<path d="M69.1934 38.6544V40.1778H66.1172V52.6583H64.3691V40.1778H61.293V38.6544H69.1934ZM77.0449 46.7599V48.254H71.8887C71.9017 48.9115 71.9538 49.4421 72.0449 49.8458C72.1361 50.2494 72.2533 50.5652 72.3965 50.7931C72.5462 51.0144 72.7188 51.1642 72.9141 51.2423C73.1094 51.3204 73.334 51.3595 73.5879 51.3595C74.1478 51.3595 74.6556 51.3237 75.1113 51.252C75.5736 51.1739 75.9609 51.1023 76.2734 51.0372V52.4825C75.9479 52.5737 75.541 52.6485 75.0527 52.7071C74.571 52.7657 74.151 52.795 73.793 52.795C73.2201 52.795 72.709 52.7364 72.2598 52.6192C71.8105 52.4955 71.4329 52.2546 71.127 51.8966C70.821 51.5385 70.5866 51.0242 70.4238 50.3536C70.2676 49.6765 70.1895 48.7781 70.1895 47.6583C70.1895 45.8419 70.4954 44.5203 71.1074 43.6935C71.4134 43.2833 71.7943 42.9871 72.25 42.8048C72.7057 42.616 73.2331 42.5216 73.832 42.5216C74.9779 42.5216 75.7982 42.8992 76.293 43.6544C76.7943 44.4031 77.0449 45.4382 77.0449 46.7599ZM73.793 43.9376C73.4674 43.9376 73.194 43.9832 72.9727 44.0743C72.7513 44.1655 72.5658 44.325 72.416 44.5528C72.123 44.9955 71.9538 45.7768 71.9082 46.8966H75.3848V46.3595C75.3848 45.5977 75.2676 45.0053 75.0332 44.5821C74.8053 44.1524 74.3919 43.9376 73.793 43.9376ZM81.5371 45.6563V52.6583H79.8379V42.6583H81.2344L81.3809 43.5372C81.9993 42.8601 82.7513 42.5216 83.6367 42.5216C84.2617 42.5216 84.7598 42.6388 85.1309 42.8731C85.5085 43.101 85.8047 43.4037 86.0195 43.7813C86.6576 42.9415 87.4974 42.5216 88.5391 42.5216C89.5677 42.5216 90.2904 42.8048 90.707 43.3712C91.1302 43.9376 91.3418 44.8328 91.3418 46.0567V52.6583H89.6426V45.8614C89.6426 45.2169 89.5514 44.7384 89.3691 44.4259C89.1868 44.1134 88.8092 43.9571 88.2363 43.9571C87.9043 43.9571 87.6016 44.045 87.3281 44.2208C87.0547 44.3966 86.8366 44.6147 86.6738 44.8751C86.5176 45.1355 86.4395 45.3959 86.4395 45.6563V52.6583H84.7402V45.8614C84.7402 45.2169 84.6491 44.7384 84.4668 44.4259C84.2845 44.1134 83.9069 43.9571 83.334 43.9571C83.002 43.9571 82.6992 44.045 82.4258 44.2208C82.1589 44.3966 81.944 44.6147 81.7812 44.8751C81.6185 45.1355 81.5371 45.3959 81.5371 45.6563ZM96.1465 52.7169V56.0567H94.4473V42.6583H95.8438L96.0098 43.5177C96.6478 42.8536 97.4323 42.5216 98.3633 42.5216C99.5417 42.5216 100.362 42.8992 100.824 43.6544C101.293 44.4031 101.527 45.5229 101.527 47.0138C101.527 48.1075 101.452 49.0255 101.303 49.7677C101.16 50.5099 100.922 51.1023 100.59 51.545C100.258 51.9942 99.8216 52.3165 99.2812 52.5118C98.7409 52.7006 98.0703 52.795 97.2695 52.795C97.0417 52.795 96.8333 52.7885 96.6445 52.7755C96.4622 52.7625 96.2962 52.7429 96.1465 52.7169ZM98.0508 43.9571C97.7057 43.9571 97.3867 44.045 97.0938 44.2208C96.8073 44.3901 96.5762 44.6049 96.4004 44.8653C96.2311 45.1257 96.1465 45.3894 96.1465 45.6563V51.2813C96.2962 51.3074 96.4753 51.3269 96.6836 51.3399C96.8984 51.353 97.1589 51.3595 97.4648 51.3595C98.3828 51.3595 99.0078 51.0112 99.3398 50.3145C99.5091 49.9695 99.6263 49.5398 99.6914 49.0255C99.7565 48.5112 99.7891 47.9089 99.7891 47.2188C99.7891 45.9819 99.6589 45.1225 99.3984 44.6407C99.2552 44.3868 99.0729 44.211 98.8516 44.1134C98.6367 44.0092 98.3698 43.9571 98.0508 43.9571ZM111.732 47.463C111.732 48.5112 111.651 49.3803 111.488 50.0704C111.332 50.754 111.094 51.2976 110.775 51.7013C110.456 52.1114 110.059 52.3979 109.584 52.5606C109.109 52.7169 108.559 52.795 107.934 52.795C107.322 52.795 106.781 52.7169 106.312 52.5606C105.844 52.3979 105.447 52.1114 105.121 51.7013C104.802 51.2976 104.558 50.754 104.389 50.0704C104.219 49.3803 104.135 48.5112 104.135 47.463C104.135 45.7507 104.441 44.5007 105.053 43.713C105.665 42.9187 106.625 42.5216 107.934 42.5216C109.242 42.5216 110.202 42.9187 110.814 43.713C111.426 44.5007 111.732 45.7507 111.732 47.463ZM109.994 47.756C109.994 47.0528 109.962 46.4539 109.896 45.9591C109.831 45.4643 109.721 45.0671 109.564 44.7677C109.265 44.2013 108.721 43.9181 107.934 43.9181C107.139 43.9181 106.599 44.2013 106.312 44.7677C106.156 45.0671 106.042 45.4643 105.971 45.9591C105.906 46.4539 105.873 47.0528 105.873 47.756C105.873 49.0645 106.026 49.9988 106.332 50.5587C106.638 51.1186 107.172 51.3985 107.934 51.3985C108.695 51.3985 109.229 51.1186 109.535 50.5587C109.841 49.9988 109.994 49.0645 109.994 47.756Z" fill="#595B0D"/>
<path d="M70.8984 22.6544V36.6583H69.2383V24.0997L67.0996 31.961H65.4395L63.3008 24.0997V36.6583H61.6992V22.6544H64.5215L66.3379 29.8224L68.1348 22.6544H70.8984ZM80.752 30.7599V32.254H75.5957C75.6087 32.9115 75.6608 33.4421 75.752 33.8458C75.8431 34.2494 75.9603 34.5652 76.1035 34.7931C76.2533 35.0144 76.4258 35.1642 76.6211 35.2423C76.8164 35.3204 77.041 35.3595 77.2949 35.3595C77.8548 35.3595 78.3626 35.3237 78.8184 35.252C79.2806 35.1739 79.668 35.1023 79.9805 35.0372V36.4825C79.6549 36.5737 79.248 36.6485 78.7598 36.7071C78.278 36.7657 77.8581 36.795 77.5 36.795C76.9271 36.795 76.416 36.7364 75.9668 36.6192C75.5176 36.4955 75.14 36.2546 74.834 35.8966C74.528 35.5385 74.2936 35.0242 74.1309 34.3536C73.9746 33.6765 73.8965 32.7781 73.8965 31.6583C73.8965 29.8419 74.2025 28.5203 74.8145 27.6935C75.1204 27.2833 75.5013 26.9871 75.957 26.8048C76.4128 26.616 76.9401 26.5216 77.5391 26.5216C78.6849 26.5216 79.5052 26.8992 80 27.6544C80.5013 28.4031 80.752 29.4382 80.752 30.7599ZM77.5 27.9376C77.1745 27.9376 76.901 27.9832 76.6797 28.0743C76.4583 28.1655 76.2728 28.325 76.123 28.5528C75.8301 28.9955 75.6608 29.7768 75.6152 30.8966H79.0918V30.3595C79.0918 29.5977 78.9746 29.0053 78.7402 28.5821C78.5124 28.1524 78.099 27.9376 77.5 27.9376ZM85.2441 29.6563V36.6583H83.5449V26.6583H84.9414L85.0879 27.5567C85.7389 26.8666 86.5592 26.5216 87.5488 26.5216C88.6621 26.5216 89.4499 26.8048 89.9121 27.3712C90.1465 27.6576 90.3125 28.0255 90.4102 28.4747C90.5143 28.9174 90.5664 29.4448 90.5664 30.0567V36.6583H88.8672V29.8614C88.8672 29.2299 88.763 28.7546 88.5547 28.4356C88.3464 28.1166 87.9102 27.9571 87.2461 27.9571C86.8945 27.9571 86.5658 28.045 86.2598 28.2208C85.9603 28.3901 85.7161 28.6049 85.5273 28.8653C85.3385 29.1257 85.2441 29.3894 85.2441 29.6563ZM100.967 31.463C100.967 32.5112 100.885 33.3803 100.723 34.0704C100.566 34.754 100.329 35.2976 100.01 35.7013C99.6908 36.1114 99.2936 36.3979 98.8184 36.5606C98.3431 36.7169 97.793 36.795 97.168 36.795C96.556 36.795 96.0156 36.7169 95.5469 36.5606C95.0781 36.3979 94.681 36.1114 94.3555 35.7013C94.0365 35.2976 93.7923 34.754 93.623 34.0704C93.4538 33.3803 93.3691 32.5112 93.3691 31.463C93.3691 29.7507 93.6751 28.5007 94.2871 27.713C94.8991 26.9187 95.8594 26.5216 97.168 26.5216C98.4766 26.5216 99.4368 26.9187 100.049 27.713C100.661 28.5007 100.967 29.7507 100.967 31.463ZM99.2285 31.756C99.2285 31.0528 99.196 30.4539 99.1309 29.9591C99.0658 29.4643 98.9551 29.0671 98.7988 28.7677C98.4993 28.2013 97.9557 27.9181 97.168 27.9181C96.3737 27.9181 95.8333 28.2013 95.5469 28.7677C95.3906 29.0671 95.2767 29.4643 95.2051 29.9591C95.14 30.4539 95.1074 31.0528 95.1074 31.756C95.1074 33.0645 95.2604 33.9988 95.5664 34.5587C95.8724 35.1186 96.4062 35.3985 97.168 35.3985C97.9297 35.3985 98.4635 35.1186 98.7695 34.5587C99.0755 33.9988 99.2285 33.0645 99.2285 31.756ZM105.557 30.4962V36.6583H103.857V26.6583H105.254L105.381 27.6739C105.602 27.3289 105.879 27.0522 106.211 26.8438C106.549 26.629 106.966 26.5216 107.461 26.5216C107.702 26.5216 107.907 26.5313 108.076 26.5509C108.252 26.5704 108.398 26.5932 108.516 26.6192V28.3966C108.346 28.3575 108.151 28.3185 107.93 28.2794C107.708 28.2403 107.503 28.2208 107.314 28.2208C106.898 28.2208 106.559 28.3315 106.299 28.5528C106.045 28.7677 105.856 29.0509 105.732 29.4024C105.615 29.7475 105.557 30.1121 105.557 30.4962Z" fill="#B9BE28"/>
</svg>
